<svg xmlns="http://www.w3.org/2000/svg" viewBox="0 0 820 520" role="img" aria-labelledby="title desc">
  <title id="title">SmartSpace logo</title>
  <desc id="desc">SmartSpace stacked logo with digital open-book symbol above the wordmark.</desc>
  <defs>
    <linearGradient id="markG" x1="0" y1="0" x2="1" y2="1">
      <stop offset="0%" stop-color="#2f6ce5"/>
      <stop offset="52%" stop-color="#5a4ff0"/>
      <stop offset="100%" stop-color="#9a23e8"/>
    </linearGradient>
    <linearGradient id="textG" x1="0" y1="0" x2="1" y2="0">
      <stop offset="0%" stop-color="#2b0f47"/>
      <stop offset="56%" stop-color="#5a1ec9"/>
      <stop offset="100%" stop-color="#9a23e8"/>
    </linearGradient>
    <radialGradient id="glowG" cx="50%" cy="45%" r="55%">
      <stop offset="0%" stop-color="#7c4dff" stop-opacity="0.28"/>
      <stop offset="100%" stop-color="#7c4dff" stop-opacity="0"/>
    </radialGradient>
  </defs>

  <ellipse cx="410" cy="155" rx="190" ry="115" fill="url(#glowG)"/>

  <g transform="translate(282,56)">
    <g fill="url(#markG)">
      <path d="M128 24c-30 0-54 10-76 28v122c23-18 47-27 76-27V24z"/>
      <path d="M128 24c30 0 54 10 76 28v122c-23-18-47-27-76-27V24z"/>
      <path d="M121 20h14v161h-14z"/>
      <path d="M80 56c18 8 32 18 43 31l-7 9c-10-12-23-21-40-28z"/>
      <path d="M176 56c-18 8-32 18-43 31l7 9c10-12 23-21 40-28z"/>
    </g>
    <g fill="#ffffff">
      <rect x="56" y="98" width="10" height="10"/>
      <rect x="45" y="113" width="11" height="11"/>
      <rect x="62" y="117" width="9" height="9"/>
      <rect x="75" y="104" width="8" height="8"/>
      <rect x="83" y="120" width="12" height="12"/>
      <rect x="97" y="131" width="10" height="10"/>
      <rect x="87" y="144" width="9" height="9"/>
      <rect x="170" y="98" width="10" height="10"/>
      <rect x="184" y="112" width="12" height="12"/>
      <rect x="168" y="125" width="9" height="9"/>
      <rect x="154" y="113" width="11" height="11"/>
      <rect x="143" y="132" width="10" height="10"/>
      <rect x="181" y="143" width="8" height="8"/>
    </g>
  </g>

  <text x="410" y="360" text-anchor="middle" font-size="90" font-weight="800" fill="url(#textG)" font-family="Poppins, Segoe UI, Arial, sans-serif">SmartSpace</text>
</svg>
