<svg xmlns="http://www.w3.org/2000/svg" viewBox="0 0 256 256" role="img" aria-labelledby="title desc">
  <title id="title">SmartSpace mark</title>
  <desc id="desc">Open book mark with digital pixel motif in blue and violet gradient.</desc>
  <defs>
    <linearGradient id="g" x1="0" y1="0" x2="1" y2="1">
      <stop offset="0%" stop-color="#2f6ce5"/>
      <stop offset="100%" stop-color="#9a23e8"/>
    </linearGradient>
  </defs>
  <g fill="url(#g)">
    <path d="M128 40c-30 0-54 10-76 28v122c23-18 47-27 76-27V40z"/>
    <path d="M128 40c30 0 54 10 76 28v122c-23-18-47-27-76-27V40z"/>
    <path d="M121 36h14v161h-14z"/>
    <path d="M80 72c18 8 32 18 43 31l-7 9c-10-12-23-21-40-28z"/>
    <path d="M176 72c-18 8-32 18-43 31l7 9c10-12 23-21 40-28z"/>
  </g>
  <g fill="#ffffff">
    <rect x="56" y="114" width="10" height="10"/>
    <rect x="45" y="129" width="11" height="11"/>
    <rect x="62" y="133" width="9" height="9"/>
    <rect x="75" y="120" width="8" height="8"/>
    <rect x="83" y="136" width="12" height="12"/>
    <rect x="97" y="147" width="10" height="10"/>
    <rect x="87" y="160" width="9" height="9"/>
    <rect x="170" y="114" width="10" height="10"/>
    <rect x="184" y="128" width="12" height="12"/>
    <rect x="168" y="141" width="9" height="9"/>
    <rect x="154" y="129" width="11" height="11"/>
    <rect x="143" y="148" width="10" height="10"/>
    <rect x="181" y="159" width="8" height="8"/>
  </g>
</svg>
