<svg xmlns="http://www.w3.org/2000/svg" width="192" height="192" viewBox="0 0 192 192" role="img" aria-label="SmartSpace icon">
  <defs>
    <linearGradient id="g" x1="0" y1="0" x2="1" y2="1">
      <stop offset="0%" stop-color="#2563eb"/>
      <stop offset="100%" stop-color="#1d4ed8"/>
    </linearGradient>
  </defs>
  <rect x="0" y="0" width="192" height="192" rx="42" fill="url(#g)"/>
  <path d="M58 58h76a8 8 0 0 1 8 8v68a6 6 0 0 1-6 6h-2a6 6 0 0 1-6-6V78H64v56a6 6 0 0 1-6 6h-2a6 6 0 0 1-6-6V66a8 8 0 0 1 8-8z" fill="#ffffff" opacity="0.95"/>
  <path d="M66 86h52" stroke="#2563eb" stroke-width="8" stroke-linecap="round"/>
  <path d="M66 104h40" stroke="#2563eb" stroke-width="8" stroke-linecap="round"/>
</svg>
